<?xml version="1.0" encoding="UTF-8"?>
<svg xmlns="http://www.w3.org/2000/svg" xmlns:xlink="http://www.w3.org/1999/xlink" width="200px" height="213px" viewBox="0 0 200 212" version="1.1">
<g id="surface1">
<path style=" stroke:none;fill-rule:nonzero;fill:rgb(0%,0%,0%);fill-opacity:1;" d="M 88.425781 0.207031 C 84.933594 0.601562 80.570312 1.386719 77.515625 2.152344 C 76.765625 2.359375 75.75 2.609375 75.230469 2.734375 C 73.398438 3.167969 66.9375 5.15625 66.605469 5.382812 C 66.5 5.445312 65.980469 5.632812 65.460938 5.796875 C 64.941406 5.941406 64.441406 6.148438 64.320312 6.253906 C 64.214844 6.335938 64.007812 6.417969 63.839844 6.417969 C 63.550781 6.417969 62.09375 7.058594 57.148438 9.378906 C 50.519531 12.484375 43.039062 17.308594 36.660156 22.546875 C 34.121094 24.636719 26.972656 31.511719 25.5625 33.226562 C 25.269531 33.582031 24.523438 34.46875 23.898438 35.195312 C 23.253906 35.941406 22.234375 37.183594 21.613281 37.988281 C 20.988281 38.777344 20.429688 39.480469 20.34375 39.542969 C 20.179688 39.667969 18.683594 41.839844 16.832031 44.613281 C 15.066406 47.265625 13.738281 49.480469 12.59375 51.652344 C 12.34375 52.109375 12.09375 52.523438 12.03125 52.585938 C 11.824219 52.75 8.726562 59.128906 8.726562 59.375 C 8.726562 59.519531 8.644531 59.625 8.519531 59.625 C 8.417969 59.625 8.3125 59.789062 8.3125 59.996094 C 8.3125 60.203125 8.230469 60.453125 8.144531 60.578125 C 8.042969 60.679688 7.835938 61.09375 7.6875 61.488281 C 7.542969 61.882812 7.167969 62.773438 6.859375 63.453125 C 6.296875 64.675781 4.40625 70.164062 3.554688 72.976562 C 3.179688 74.261719 2.679688 76.082031 2.058594 78.464844 C 0.808594 83.269531 0.207031 87.285156 0.105469 91.402344 C 0.0429688 93.765625 0.0820312 94.613281 0.207031 93.992188 C 0.3125 93.472656 0.394531 92.605469 0.394531 92.046875 C 0.414062 91.464844 0.5 90.492188 0.625 89.871094 C 0.726562 89.230469 0.914062 87.925781 1.039062 86.953125 C 1.164062 85.980469 1.351562 84.777344 1.453125 84.261719 C 1.558594 83.742188 1.746094 82.769531 1.890625 82.085938 C 2.203125 80.410156 2.660156 78.339844 2.929688 77.324219 C 3.054688 76.871094 3.242188 76.167969 3.347656 75.773438 C 3.71875 74.242188 4.613281 71.300781 4.800781 70.96875 C 4.90625 70.761719 4.988281 70.492188 4.988281 70.347656 C 4.988281 70.039062 6.027344 67.179688 6.609375 65.835938 C 6.734375 65.546875 7.085938 64.695312 7.355469 63.910156 C 8.082031 61.964844 8.875 60.203125 10.703125 56.519531 C 12.90625 52.046875 15.046875 48.320312 17.621094 44.46875 C 19.347656 41.902344 20.09375 40.886719 22.796875 37.472656 C 27.078125 32.046875 34.726562 24.511719 39.359375 21.117188 C 40.046875 20.621094 40.753906 20.101562 40.917969 19.957031 C 43.203125 18.136719 48.296875 14.71875 50.769531 13.375 C 51.539062 12.960938 52.515625 12.421875 52.949219 12.171875 C 54.53125 11.28125 58.125 9.480469 59.539062 8.859375 C 60.347656 8.507812 61.492188 8.011719 62.09375 7.742188 C 62.699219 7.472656 63.238281 7.246094 63.300781 7.246094 C 63.363281 7.246094 63.714844 7.121094 64.070312 6.957031 C 64.441406 6.8125 65.066406 6.5625 65.460938 6.417969 C 65.855469 6.273438 66.375 6.085938 66.605469 6.003906 C 66.832031 5.921875 67.394531 5.691406 67.851562 5.527344 C 69.054688 5.050781 72.796875 3.933594 73.171875 3.933594 C 73.335938 3.933594 73.566406 3.851562 73.691406 3.769531 C 73.792969 3.664062 74.4375 3.476562 75.125 3.332031 C 75.808594 3.1875 76.601562 2.980469 76.890625 2.878906 C 77.183594 2.792969 78.574219 2.484375 80.007812 2.195312 C 82.292969 1.757812 83.269531 1.59375 86.242188 1.136719 C 86.636719 1.078125 87.675781 0.929688 88.527344 0.828125 C 89.378906 0.722656 90.460938 0.578125 90.917969 0.515625 C 91.375 0.433594 93.808594 0.308594 96.320312 0.226562 L 100.894531 0.0625 L 95.28125 0.0625 C 92.207031 0.0625 89.109375 0.125 88.425781 0.207031 Z M 88.425781 0.207031 "/>
<path style=" stroke:none;fill-rule:nonzero;fill:rgb(0%,0%,0%);fill-opacity:1;" d="M 105.464844 0.332031 C 110.058594 0.621094 111.554688 0.746094 113.257812 1.035156 C 113.882812 1.136719 115.066406 1.324219 115.855469 1.46875 C 119.679688 2.070312 125 3.230469 126.246094 3.707031 C 127.183594 4.078125 128.179688 4.347656 128.554688 4.347656 C 128.78125 4.347656 129.050781 4.429688 129.15625 4.535156 C 129.28125 4.636719 130.152344 4.96875 131.128906 5.277344 C 132.105469 5.589844 133.082031 5.921875 133.3125 6.003906 C 134.269531 6.355469 136.71875 7.347656 137.78125 7.804688 C 138.402344 8.074219 139.109375 8.382812 139.339844 8.46875 C 140.273438 8.839844 145.46875 11.40625 146.714844 12.132812 C 147.464844 12.546875 148.671875 13.207031 149.417969 13.621094 C 150.5 14.203125 155.527344 17.410156 156.378906 18.074219 C 156.503906 18.15625 157.441406 18.859375 158.457031 19.625 C 162.15625 22.378906 164.339844 24.203125 167.851562 27.492188 C 169.824219 29.335938 171.550781 31.035156 171.714844 31.261719 C 171.863281 31.488281 172.753906 32.484375 173.671875 33.476562 C 175.269531 35.238281 177.078125 37.367188 178.035156 38.632812 C 178.261719 38.964844 178.925781 39.832031 179.488281 40.578125 C 180.027344 41.324219 181.316406 43.1875 182.335938 44.71875 C 183.332031 46.25 184.414062 47.886719 184.726562 48.339844 C 185.015625 48.796875 185.496094 49.625 185.785156 50.203125 C 186.078125 50.765625 186.367188 51.28125 186.429688 51.34375 C 186.699219 51.550781 190.191406 58.238281 190.816406 59.726562 C 193.101562 65.214844 193.890625 67.222656 193.890625 67.535156 C 193.890625 67.742188 193.996094 67.90625 194.097656 67.90625 C 194.222656 67.90625 194.304688 68.070312 194.304688 68.257812 C 194.304688 68.464844 194.492188 69.148438 194.742188 69.769531 C 194.992188 70.390625 195.367188 71.550781 195.59375 72.355469 C 195.824219 73.144531 196.132812 74.261719 196.320312 74.839844 C 196.738281 76.25 196.882812 76.789062 197.734375 80.742188 C 198.566406 84.632812 198.730469 85.691406 199.605469 92.75 L 199.894531 95.128906 L 199.8125 91.507812 C 199.769531 89.519531 199.625 87.367188 199.5 86.746094 C 199.191406 85.191406 198.460938 81.464844 198.253906 80.328125 C 198.046875 79.273438 197.796875 78.257812 197.320312 76.496094 C 197.132812 75.816406 196.902344 74.925781 196.820312 74.53125 C 196.238281 72.148438 193.351562 63.953125 192.351562 61.921875 C 192.0625 61.300781 191.8125 60.722656 191.8125 60.617188 C 191.8125 60.410156 188.15625 53.0625 187.34375 51.652344 C 185.203125 47.90625 181.089844 41.632812 179.03125 39.003906 C 173.210938 31.53125 167.039062 25.402344 159.496094 19.605469 C 157.355469 17.96875 153.074219 15.09375 150.25 13.414062 C 147.195312 11.574219 139.921875 8.011719 136.429688 6.625 C 134.953125 6.023438 133.5625 5.464844 133.375 5.363281 C 133.167969 5.257812 132.855469 5.175781 132.6875 5.175781 C 132.523438 5.175781 132.210938 5.09375 132.003906 4.96875 C 131.816406 4.863281 130.945312 4.574219 130.089844 4.328125 C 129.238281 4.078125 127.886719 3.664062 127.078125 3.414062 C 126.289062 3.167969 125.167969 2.835938 124.585938 2.710938 C 124.023438 2.566406 123.171875 2.359375 122.714844 2.257812 C 120.824219 1.757812 120.40625 1.675781 119.804688 1.574219 C 119.472656 1.511719 118.660156 1.367188 118.039062 1.242188 C 113.050781 0.289062 110.183594 0.0195312 105.671875 0.0429688 L 101.308594 0.0625 Z M 105.464844 0.332031 "/>
<path style=" stroke:none;fill-rule:nonzero;fill:rgb(0%,0%,0%);fill-opacity:1;" d="M 95.59375 34.574219 C 90.542969 34.96875 85.953125 36.230469 81.628906 38.425781 C 76.308594 41.136719 72.296875 44.882812 69.054688 50.203125 C 67.769531 52.335938 67.457031 53.042969 66.605469 55.585938 C 65.648438 58.484375 65.046875 62.296875 65.046875 65.566406 C 65.046875 66.851562 64.960938 67.71875 64.816406 67.824219 C 64.566406 67.96875 63.15625 68.382812 60.910156 68.921875 C 60.078125 69.148438 59.144531 69.5 58.832031 69.707031 C 58.3125 70.101562 58.292969 70.226562 58.230469 72.191406 C 58.167969 74.511719 58.230469 74.632812 60.078125 75.898438 C 60.890625 76.457031 61.054688 76.683594 61.367188 77.800781 C 61.742188 79.1875 61.679688 79.707031 61.078125 79.707031 C 60.433594 79.707031 59.726562 80.121094 59.371094 80.742188 C 58.957031 81.445312 58.875 85.339844 59.246094 86.890625 C 59.765625 88.980469 60.496094 91.839844 60.660156 92.335938 C 60.765625 92.625 60.953125 93.265625 61.097656 93.785156 C 61.429688 94.921875 62.40625 97.46875 63.070312 98.855469 C 64.132812 101.132812 65.335938 102.230469 67.144531 102.5625 C 67.894531 102.6875 67.894531 102.707031 68.640625 104.945312 C 69.304688 106.953125 70.886719 110.410156 72.070312 112.460938 C 72.527344 113.265625 74.4375 116.1875 74.605469 116.351562 C 74.667969 116.414062 74.980469 116.828125 75.3125 117.28125 C 76.226562 118.523438 80.152344 122.480469 81.523438 123.535156 C 85.433594 126.558594 89.671875 128.503906 94.554688 129.519531 C 96.425781 129.910156 103.367188 129.910156 105.402344 129.519531 C 108.664062 128.875 113.070312 127.136719 115.628906 125.503906 C 118.722656 123.515625 122.257812 120.328125 124.523438 117.488281 C 127.535156 113.722656 130.339844 108.320312 132.042969 103.058594 C 132.105469 102.851562 132.417969 102.644531 132.730469 102.582031 C 134.039062 102.292969 134.953125 101.734375 135.742188 100.761719 C 136.449219 99.871094 137.574219 97.78125 137.574219 97.347656 C 137.574219 97.261719 137.699219 96.953125 137.863281 96.664062 C 138.007812 96.371094 138.402344 95.296875 138.714844 94.28125 C 139.027344 93.265625 139.320312 92.292969 139.378906 92.128906 C 139.441406 91.964844 139.566406 91.488281 139.652344 91.09375 C 139.753906 90.699219 139.984375 89.769531 140.171875 89.023438 C 141.1875 85.046875 141.355469 82.253906 140.691406 80.96875 C 140.316406 80.203125 139.277344 79.5 138.527344 79.5 C 138.09375 79.5 138.09375 78.816406 138.527344 77.554688 C 138.777344 76.828125 139.089844 76.414062 139.796875 75.917969 C 141.75 74.53125 141.730469 74.574219 141.730469 72.355469 C 141.730469 69.914062 141.5 69.605469 139.339844 69.042969 C 138.527344 68.859375 137.324219 68.527344 136.636719 68.320312 L 135.390625 67.949219 L 135.246094 65.503906 C 134.996094 60.910156 133.875 55.917969 132.355469 52.6875 C 130.796875 49.355469 129.050781 46.953125 126.058594 43.992188 C 122.652344 40.640625 119.804688 38.816406 115.335938 37.121094 C 112.574219 36.066406 108.8125 35.070312 106.585938 34.800781 C 104.175781 34.492188 98.234375 34.386719 95.59375 34.574219 Z M 102.472656 36.023438 C 107.128906 36.375 109.621094 36.789062 112.53125 37.722656 C 114.277344 38.28125 114.257812 38.28125 117.621094 39.914062 C 120.863281 41.507812 122.589844 42.691406 124.832031 44.863281 C 126.246094 46.269531 126.621094 46.683594 128.035156 48.445312 C 128.761719 49.355469 130.507812 52.171875 130.507812 52.421875 C 130.507812 52.503906 130.777344 53.144531 131.109375 53.871094 C 131.960938 55.691406 132.730469 58.175781 133.082031 60.246094 C 133.457031 62.441406 133.707031 67.097656 133.480469 67.429688 C 133.332031 67.636719 133.125 67.636719 132.480469 67.429688 C 131.878906 67.265625 129.488281 67.179688 124.167969 67.179688 C 117.269531 67.179688 116.480469 67.222656 114.109375 67.65625 C 112.699219 67.925781 111.386719 68.214844 111.199219 68.300781 C 111.015625 68.382812 110.078125 68.628906 109.101562 68.835938 C 108.125 69.042969 106.546875 69.480469 105.570312 69.8125 C 102.265625 70.96875 98.171875 71.011719 94.867188 69.933594 C 93.847656 69.582031 92.019531 69.085938 90.816406 68.796875 C 83.726562 67.140625 82.5625 67.015625 74.605469 67.160156 C 71.011719 67.222656 67.789062 67.304688 67.4375 67.328125 L 66.8125 67.386719 L 66.75 65.109375 C 66.667969 62.417969 67.144531 58.777344 67.894531 56.519531 C 68.640625 54.179688 70.511719 50.558594 71.945312 48.609375 C 74.667969 44.988281 78.074219 42.070312 82.085938 40 C 86.824219 37.554688 90.460938 36.5625 96.839844 36.042969 C 98.046875 35.960938 99.167969 35.859375 99.355469 35.835938 C 99.523438 35.835938 100.933594 35.898438 102.472656 36.023438 Z M 84.519531 68.484375 C 87.675781 68.941406 89.921875 69.417969 90.710938 69.769531 C 91.4375 70.121094 95.636719 71.175781 97.195312 71.40625 C 99.210938 71.714844 100.851562 71.695312 103.136719 71.320312 C 104.84375 71.054688 109.019531 69.976562 109.476562 69.6875 C 109.808594 69.480469 113.800781 68.734375 115.730469 68.527344 C 116.792969 68.402344 118.058594 68.214844 118.535156 68.113281 C 119.679688 67.84375 128.761719 67.84375 129.675781 68.113281 C 130.070312 68.238281 131.484375 68.464844 132.792969 68.628906 C 136.617188 69.105469 139.277344 69.789062 140.128906 70.535156 C 140.417969 70.804688 140.480469 71.21875 140.480469 72.585938 C 140.480469 74.160156 140.441406 74.324219 140.023438 74.550781 C 139.753906 74.675781 139.152344 75.109375 138.675781 75.503906 C 137.800781 76.207031 137.636719 76.558594 136.929688 79.292969 C 136.324219 81.632812 135.410156 84.304688 134.871094 85.234375 C 132.855469 88.734375 128.925781 90.347656 121.863281 90.617188 C 117.269531 90.78125 113.757812 90.222656 111.035156 88.917969 C 108.519531 87.675781 106.089844 84.179688 104.445312 79.457031 C 103.636719 77.097656 103.53125 76.910156 103.011719 76.851562 C 102.679688 76.808594 102.285156 76.539062 102.035156 76.1875 C 101.328125 75.214844 99.4375 74.863281 98.027344 75.460938 C 96.777344 75.980469 96.175781 77.015625 95.035156 80.636719 C 94.972656 80.867188 94.390625 82.066406 93.746094 83.308594 C 91.6875 87.304688 89.527344 89.066406 85.410156 90.078125 C 83.664062 90.515625 82.9375 90.574219 79.175781 90.574219 C 75.4375 90.574219 74.648438 90.515625 72.734375 90.078125 C 69.636719 89.394531 68.183594 88.671875 66.625 87.117188 C 64.898438 85.359375 63.695312 82.769531 62.863281 78.980469 C 62.386719 76.808594 61.886719 75.9375 60.535156 75.046875 L 59.414062 74.304688 L 59.539062 70.492188 L 60.265625 70.164062 C 61.386719 69.644531 65.253906 68.816406 68.578125 68.339844 C 72.753906 67.78125 79.964844 67.84375 84.519531 68.484375 Z M 101.453125 76.871094 C 101.808594 77.324219 102.453125 79.335938 102.453125 79.976562 C 102.453125 80.390625 102.679688 80.429688 103.011719 80.101562 C 103.386719 79.726562 103.617188 80.015625 104.199219 81.652344 C 104.488281 82.5 105.070312 83.765625 105.464844 84.46875 C 105.859375 85.171875 106.191406 85.835938 106.191406 85.9375 C 106.191406 86.042969 106.835938 86.765625 107.605469 87.574219 C 108.726562 88.691406 109.414062 89.1875 110.785156 89.832031 C 113.902344 91.300781 114.527344 91.382812 120.738281 91.382812 C 125.808594 91.382812 126.390625 91.34375 128.011719 90.90625 C 128.988281 90.660156 130.050781 90.308594 130.402344 90.160156 C 130.734375 89.996094 131.359375 89.726562 131.753906 89.539062 C 132.148438 89.375 132.730469 89.066406 133.042969 88.878906 C 133.355469 88.671875 133.664062 88.589844 133.726562 88.652344 C 133.8125 88.734375 133.6875 89.375 133.457031 90.101562 C 133.230469 90.824219 132.960938 91.777344 132.898438 92.230469 C 132.8125 92.6875 132.355469 94.550781 131.859375 96.371094 C 131.378906 98.195312 130.859375 100.285156 130.714844 101.03125 C 130.445312 102.417969 129.550781 105.316406 129.261719 105.6875 C 129.175781 105.792969 128.988281 106.269531 128.84375 106.722656 C 127.929688 109.539062 124.730469 114.796875 122.132812 117.695312 C 118.039062 122.25 114.171875 124.941406 108.894531 126.828125 C 106.316406 127.757812 104.550781 128.089844 101.515625 128.234375 C 96.03125 128.523438 91.730469 127.613281 87.074219 125.191406 C 84.476562 123.847656 82.898438 122.6875 80.464844 120.386719 C 76.640625 116.765625 74.398438 113.640625 71.988281 108.691406 C 70.199219 105.046875 69.574219 103.121094 68.785156 99.0625 C 68.640625 98.382812 68.265625 96.972656 67.957031 95.957031 C 67.644531 94.921875 67.3125 93.765625 67.226562 93.371094 C 67.144531 92.976562 66.917969 91.796875 66.707031 90.78125 C 66.5 89.746094 66.398438 88.835938 66.480469 88.753906 C 66.5625 88.671875 67.125 88.878906 67.683594 89.230469 C 69.203125 90.183594 72.132812 91.09375 74.292969 91.300781 C 76.765625 91.550781 81.710938 91.550781 84.144531 91.300781 C 87.738281 90.929688 90.773438 89.355469 92.832031 86.847656 C 94.265625 85.070312 96.074219 81.40625 96.925781 78.445312 C 97.445312 76.683594 98.273438 76.105469 100.0625 76.3125 C 100.789062 76.375 101.207031 76.539062 101.453125 76.871094 Z M 62.054688 80.492188 C 62.15625 80.578125 62.363281 81.136719 62.511719 81.714844 C 62.636719 82.316406 63.175781 83.703125 63.695312 84.800781 C 64.589844 86.664062 64.816406 87.738281 64.320312 87.636719 C 64.214844 87.617188 63.632812 86.726562 63.070312 85.667969 C 62.488281 84.613281 61.71875 83.289062 61.347656 82.730469 C 60.578125 81.527344 60.535156 81.300781 61.097656 80.742188 C 61.554688 80.285156 61.699219 80.246094 62.054688 80.492188 Z M 138.859375 80.679688 C 139.421875 81.175781 139.320312 81.714844 138.445312 83.101562 C 137.988281 83.804688 137.28125 84.984375 136.824219 85.753906 C 136.386719 86.519531 135.929688 87.117188 135.804688 87.097656 C 135.347656 86.953125 135.515625 86.125 136.242188 84.757812 C 136.660156 83.972656 137.179688 82.75 137.386719 82.046875 C 137.925781 80.164062 138.09375 79.996094 138.859375 80.679688 Z M 139.527344 84.613281 C 139.359375 86.207031 138.613281 89.789062 138.09375 91.507812 C 137.90625 92.128906 137.65625 93 137.550781 93.433594 C 137.242188 94.695312 135.515625 98.589844 134.914062 99.375 C 133.957031 100.617188 132.960938 101.28125 132.5625 100.886719 C 132.480469 100.804688 132.503906 100.347656 132.605469 99.890625 C 132.730469 99.4375 132.917969 98.691406 133.023438 98.234375 C 133.625 95.835938 133.601562 95.855469 134.476562 95.523438 C 135.222656 95.214844 136.949219 93.558594 136.949219 93.144531 C 136.949219 92.894531 136.597656 92.914062 136.429688 93.144531 C 136.160156 93.597656 134.394531 94.632812 134.207031 94.449219 C 133.957031 94.199219 134.726562 91.050781 135.222656 90.347656 C 135.453125 90.015625 136.035156 89.003906 136.511719 88.089844 C 137.363281 86.457031 137.53125 86.144531 138.675781 84.199219 C 139.484375 82.832031 139.714844 82.9375 139.527344 84.613281 Z M 61.78125 85.007812 C 62.199219 85.792969 62.96875 87.242188 63.488281 88.238281 C 63.984375 89.210938 64.503906 90.078125 64.609375 90.140625 C 64.859375 90.308594 65.605469 92.5625 65.773438 93.722656 C 65.9375 94.839844 65.792969 94.839844 64.214844 93.785156 C 62.800781 92.832031 62.34375 93.019531 63.402344 94.136719 C 64.132812 94.882812 65.417969 95.648438 65.960938 95.648438 C 66.273438 95.648438 66.3125 95.710938 66.667969 97.304688 C 67.496094 100.824219 67.496094 101.03125 66.917969 101.03125 C 66.375 101.03125 64.984375 99.601562 64.421875 98.464844 C 64.171875 97.945312 63.613281 96.476562 63.132812 95.191406 C 61.410156 90.347656 60.847656 88.152344 60.578125 85.007812 C 60.390625 82.957031 60.660156 82.957031 61.78125 85.007812 Z M 61.78125 85.007812 "/>
<path style=" stroke:none;fill-rule:nonzero;fill:rgb(0%,0%,0%);fill-opacity:1;" d="M 73.460938 69.75 C 71.964844 69.933594 70.09375 70.347656 68.246094 70.929688 C 66.832031 71.382812 65.335938 72.667969 65.046875 73.660156 C 64.441406 75.816406 65.066406 80.390625 66.417969 83.722656 C 67.769531 87.097656 70.863281 88.484375 78.035156 88.941406 C 79.90625 89.066406 85.265625 88.566406 85.722656 88.214844 C 85.828125 88.132812 86.449219 87.882812 87.074219 87.699219 C 88.382812 87.261719 89.589844 86.457031 90.335938 85.460938 C 91 84.570312 92.476562 81.613281 92.476562 81.15625 C 92.476562 80.949219 92.621094 80.515625 92.789062 80.203125 C 92.957031 79.871094 93.101562 79.417969 93.101562 79.167969 C 93.101562 78.941406 93.203125 78.652344 93.351562 78.507812 C 93.746094 78.113281 93.828125 75.132812 93.453125 74.386719 C 92.457031 72.480469 90.816406 71.550781 87.238281 70.804688 C 86.054688 70.554688 84.457031 70.226562 83.644531 70.058594 C 81.960938 69.707031 75.601562 69.519531 73.460938 69.75 Z M 82.960938 70.929688 C 85.828125 71.238281 88.738281 71.941406 89.714844 72.585938 C 89.960938 72.75 90.316406 72.875 90.460938 72.875 C 90.628906 72.875 91.167969 73.246094 91.667969 73.683594 L 92.582031 74.488281 L 92.558594 77.117188 C 92.539062 78.566406 92.4375 79.933594 92.3125 80.183594 C 92.1875 80.429688 91.9375 81.011719 91.75 81.464844 C 90.480469 84.59375 89.132812 86.351562 87.449219 87.035156 C 86.96875 87.242188 86.285156 87.53125 85.972656 87.699219 C 85.640625 87.863281 84.933594 87.988281 84.371094 87.988281 C 83.832031 87.988281 82.980469 88.132812 82.503906 88.296875 C 81.316406 88.710938 77.554688 88.710938 76.183594 88.296875 C 75.625 88.132812 74.75 87.988281 74.273438 87.988281 C 73.773438 87.988281 72.964844 87.863281 72.484375 87.699219 C 71.988281 87.53125 71.363281 87.367188 71.074219 87.285156 C 70.261719 87.117188 68.121094 85.070312 67.476562 83.867188 C 67.164062 83.308594 66.769531 82.234375 66.605469 81.527344 C 66.457031 80.804688 66.167969 79.5625 66 78.773438 C 65.566406 76.851562 65.585938 76 66.085938 74.59375 C 66.875 72.355469 67.957031 71.695312 72.070312 71.011719 C 74.894531 70.535156 79.113281 70.492188 82.960938 70.929688 Z M 82.960938 70.929688 "/>
<path style=" stroke:none;fill-rule:nonzero;fill:rgb(0%,0%,0%);fill-opacity:1;" d="M 76.371094 73.597656 C 74.148438 74.242188 72.859375 74.757812 72.152344 75.339844 L 71.59375 75.792969 L 72.113281 75.667969 C 72.402344 75.585938 73.335938 75.339844 74.191406 75.109375 C 75.394531 74.78125 76.640625 74.675781 79.738281 74.59375 C 83.625 74.488281 83.769531 74.488281 85.433594 75.027344 C 86.386719 75.339844 87.261719 75.667969 87.386719 75.753906 C 87.488281 75.835938 87.761719 75.980469 87.988281 76.0625 C 88.859375 76.375 87.78125 75.296875 86.535156 74.632812 C 83.582031 73.039062 79.695312 72.648438 76.371094 73.597656 Z M 76.371094 73.597656 "/>
<path style=" stroke:none;fill-rule:nonzero;fill:rgb(0%,0%,0%);fill-opacity:1;" d="M 77.308594 75.816406 C 75.789062 76.394531 74.375 77.324219 72.734375 78.859375 C 71.738281 79.769531 71.445312 80.164062 71.613281 80.328125 C 71.945312 80.660156 73.484375 80.222656 74.398438 79.519531 C 75.519531 78.671875 76.996094 77.96875 77.367188 78.113281 C 77.617188 78.195312 77.722656 78.484375 77.722656 79.042969 C 77.722656 79.832031 78.179688 81.03125 78.574219 81.257812 C 78.679688 81.34375 78.761719 81.527344 78.761719 81.695312 C 78.761719 81.902344 78.511719 81.984375 77.828125 81.984375 C 76.828125 81.984375 76.578125 82.273438 77.367188 82.523438 C 78.324219 82.832031 81.710938 82.914062 83 82.667969 C 85.453125 82.191406 86.554688 81.921875 86.761719 81.734375 C 87.117188 81.425781 85.867188 81.570312 85.101562 81.921875 C 84.039062 82.417969 83.769531 82.066406 84.457031 81.074219 C 84.789062 80.578125 85.039062 79.851562 85.121094 79.066406 C 85.203125 78.402344 85.347656 77.84375 85.453125 77.84375 C 85.890625 77.84375 87.238281 78.546875 88.21875 79.273438 C 90.605469 81.074219 90.835938 80.804688 88.757812 78.609375 C 87.800781 77.617188 86.90625 76.890625 86.097656 76.519531 C 85.433594 76.1875 84.703125 75.816406 84.476562 75.691406 C 84.246094 75.566406 82.792969 75.441406 81.253906 75.421875 C 78.804688 75.359375 78.304688 75.421875 77.308594 75.816406 Z M 79.261719 77.761719 C 79.488281 77.84375 79.59375 78.152344 79.59375 78.773438 C 79.59375 80.597656 81.691406 81.363281 82.898438 79.996094 C 83.292969 79.519531 83.355469 79.25 83.269531 78.527344 C 83.1875 77.71875 83.207031 77.636719 83.644531 77.636719 C 84.933594 77.636719 84.476562 80.535156 83.0625 81.464844 C 81.648438 82.378906 79.613281 81.941406 78.824219 80.554688 C 78.304688 79.664062 78.199219 78.277344 78.59375 77.886719 C 78.886719 77.59375 78.84375 77.59375 79.261719 77.761719 Z M 79.261719 77.761719 "/>
<path style=" stroke:none;fill-rule:nonzero;fill:rgb(0%,0%,0%);fill-opacity:1;" d="M 75.332031 81.777344 C 75.914062 82.027344 76.726562 82.027344 76.578125 81.777344 C 76.515625 81.652344 76.101562 81.570312 75.6875 81.589844 C 75.0625 81.589844 75 81.632812 75.332031 81.777344 Z M 75.332031 81.777344 "/>
<path style=" stroke:none;fill-rule:nonzero;fill:rgb(0%,0%,0%);fill-opacity:1;" d="M 118.351562 69.75 C 117.558594 69.851562 116.519531 70.019531 116.0625 70.140625 C 115.605469 70.265625 114.714844 70.410156 114.089844 70.492188 C 112.511719 70.679688 110.015625 71.382812 108.894531 71.941406 C 107.316406 72.75 106.546875 73.660156 106.316406 74.964844 C 106.171875 75.792969 106.523438 79.4375 106.796875 79.789062 C 106.878906 79.914062 107.066406 80.429688 107.210938 80.949219 C 107.625 82.417969 108.875 84.800781 109.746094 85.792969 C 110.578125 86.746094 112.324219 87.78125 113.050781 87.78125 C 113.28125 87.78125 113.695312 87.90625 113.945312 88.070312 C 114.484375 88.402344 118.683594 89.023438 120.40625 89.023438 C 122.382812 89.023438 127.222656 88.382812 127.679688 88.070312 C 127.910156 87.90625 128.347656 87.78125 128.636719 87.78125 C 128.90625 87.78125 129.738281 87.492188 130.464844 87.117188 C 132.792969 85.980469 133.914062 83.890625 134.871094 78.980469 C 135.371094 76.457031 135.390625 75.523438 134.953125 74.199219 C 134.183594 71.902344 132.875 71.054688 129.011719 70.308594 C 126.183594 69.769531 120.886719 69.480469 118.351562 69.75 Z M 128.988281 71.199219 C 131.234375 71.675781 132.398438 72.253906 133.292969 73.351562 C 133.894531 74.117188 133.9375 74.28125 134 76.1875 C 134.0625 77.738281 133.976562 78.714844 133.625 80.203125 C 133.230469 81.984375 132.167969 84.53125 131.503906 85.296875 C 130.902344 86 129.324219 87.140625 128.761719 87.285156 C 128.429688 87.367188 127.910156 87.554688 127.617188 87.699219 C 127.328125 87.863281 126.558594 87.988281 125.914062 87.988281 C 125.269531 87.988281 124.398438 88.132812 124.003906 88.296875 C 122.984375 88.710938 118.058594 88.734375 117.25 88.320312 C 116.9375 88.175781 116.085938 87.988281 115.335938 87.90625 C 114.609375 87.84375 113.902344 87.675781 113.800781 87.574219 C 113.675781 87.449219 113.363281 87.367188 113.070312 87.367188 C 112.363281 87.347656 110.722656 86.144531 109.914062 85.027344 C 108.125 82.648438 106.773438 78.050781 107.148438 75.648438 C 107.523438 73.101562 110.515625 71.734375 117.726562 70.804688 C 120.179688 70.492188 126.789062 70.722656 128.988281 71.199219 Z M 128.988281 71.199219 "/>
<path style=" stroke:none;fill-rule:nonzero;fill:rgb(0%,0%,0%);fill-opacity:1;" d="M 116.167969 73.496094 C 115.417969 73.703125 114.546875 74.011719 114.195312 74.199219 C 113.859375 74.386719 113.507812 74.53125 113.425781 74.53125 C 113.175781 74.53125 111.597656 75.628906 111.597656 75.816406 C 111.597656 76.082031 111.90625 76.023438 113.613281 75.316406 C 115.191406 74.65625 115.316406 74.65625 119.015625 74.574219 C 123.046875 74.488281 125.0625 74.738281 127.203125 75.566406 C 127.949219 75.855469 128.222656 75.898438 128.222656 75.710938 C 128.222656 75.234375 125.996094 74.304688 122.984375 73.496094 C 120.988281 72.976562 118.121094 72.976562 116.167969 73.496094 Z M 116.167969 73.496094 "/>
<path style=" stroke:none;fill-rule:nonzero;fill:rgb(0%,0%,0%);fill-opacity:1;" d="M 115.9375 75.566406 C 114.339844 76.042969 112.59375 77.140625 111.304688 78.464844 C 110.558594 79.230469 109.933594 79.976562 109.933594 80.101562 C 109.933594 80.535156 110.472656 80.328125 111.492188 79.480469 C 112.511719 78.628906 113.921875 77.863281 114.464844 77.84375 C 114.609375 77.84375 114.714844 78.132812 114.714844 78.652344 C 114.714844 79.5625 115.066406 80.699219 115.480469 81.199219 C 115.648438 81.382812 115.730469 81.652344 115.648438 81.757812 C 115.480469 82.046875 114.566406 82.046875 114.402344 81.777344 C 114.339844 81.652344 113.921875 81.570312 113.507812 81.589844 L 112.738281 81.589844 L 113.839844 81.984375 C 115.605469 82.5625 117.394531 82.855469 119.265625 82.855469 C 121.09375 82.832031 123.027344 82.480469 123.027344 82.171875 C 123.027344 82.066406 123.273438 81.984375 123.609375 81.984375 C 123.917969 81.984375 124.3125 81.878906 124.480469 81.757812 C 124.710938 81.589844 124.585938 81.570312 123.960938 81.652344 C 121.445312 82.003906 121.195312 82.027344 121.050781 81.777344 C 120.96875 81.652344 121.09375 81.34375 121.320312 81.09375 C 121.882812 80.515625 122.195312 79.644531 122.195312 78.753906 C 122.195312 78.257812 122.296875 78.050781 122.507812 78.050781 C 123.046875 78.050781 124.148438 78.589844 125.25 79.375 C 126.226562 80.078125 128.222656 80.636719 128.222656 80.222656 C 128.222656 79.933594 125.664062 77.429688 124.894531 76.953125 C 124.5 76.703125 123.566406 76.25 122.816406 75.917969 C 121.59375 75.402344 121.257812 75.359375 118.972656 75.378906 C 117.601562 75.378906 116.230469 75.460938 115.9375 75.566406 Z M 116.542969 78.589844 C 116.644531 80.203125 117.683594 80.992188 119.097656 80.535156 C 120.035156 80.222656 120.574219 79.375 120.40625 78.484375 C 120.304688 78.007812 120.367188 77.824219 120.613281 77.71875 C 121.15625 77.511719 121.425781 77.925781 121.40625 78.960938 C 121.363281 80.679688 120.492188 81.714844 118.910156 81.921875 C 116.957031 82.191406 115.542969 80.949219 115.542969 78.980469 C 115.542969 77.203125 116.4375 76.851562 116.542969 78.589844 Z M 116.542969 78.589844 "/>
<path style=" stroke:none;fill-rule:nonzero;fill:rgb(0%,0%,0%);fill-opacity:1;" d="M 106.921875 96.226562 L 106.773438 97.097656 L 105.820312 97.097656 C 105.277344 97.097656 104.570312 97.242188 104.238281 97.40625 C 103.925781 97.574219 103.386719 97.71875 103.074219 97.71875 C 102.765625 97.71875 102.390625 97.863281 102.222656 98.050781 C 101.703125 98.691406 100.707031 99.023438 99.417969 99.023438 C 98.066406 99.023438 97.609375 98.835938 96.34375 97.863281 C 95.71875 97.367188 95.28125 97.199219 94.328125 97.140625 C 93.140625 97.054688 93.140625 97.054688 92.996094 96.289062 C 92.851562 95.585938 92.851562 95.566406 92.539062 95.957031 C 92.144531 96.496094 92.3125 98.050781 92.808594 98.566406 C 93.246094 98.980469 94.285156 99.105469 95.304688 98.878906 C 95.824219 98.753906 96.074219 98.835938 96.550781 99.230469 C 98.253906 100.617188 100 100.742188 101.765625 99.625 C 102.804688 98.960938 103.824219 98.796875 105.425781 99.085938 C 106.066406 99.1875 106.316406 99.125 106.898438 98.671875 C 107.835938 97.96875 108 97.160156 107.480469 96.144531 L 107.066406 95.359375 Z M 106.921875 96.226562 "/>
<path style=" stroke:none;fill-rule:nonzero;fill:rgb(0%,0%,0%);fill-opacity:1;" d="M 93.515625 107.054688 C 90.730469 108.132812 89.359375 108.484375 87.761719 108.484375 C 86.285156 108.484375 86.035156 108.816406 87.011719 109.457031 C 87.53125 109.808594 88.445312 109.828125 99.957031 109.828125 C 111.472656 109.828125 112.386719 109.808594 112.90625 109.457031 C 113.921875 108.792969 113.632812 108.566406 111.660156 108.421875 C 109.703125 108.277344 108.789062 108.070312 105.921875 107.054688 C 104.90625 106.703125 103.53125 106.351562 102.867188 106.269531 C 101.789062 106.164062 101.496094 106.226562 100.5 106.722656 L 99.355469 107.304688 L 98.503906 106.765625 C 97.296875 105.957031 96.195312 106.019531 93.515625 107.054688 Z M 93.515625 107.054688 "/>
<path style=" stroke:none;fill-rule:nonzero;fill:rgb(0%,0%,0%);fill-opacity:1;" d="M 105.984375 112.789062 C 105.589844 112.957031 103.949219 113.226562 102.347656 113.371094 C 99.191406 113.660156 96.113281 113.496094 94.367188 112.914062 C 93.308594 112.582031 93.101562 112.5625 93.101562 112.789062 C 93.101562 113.164062 96.21875 114.46875 97.816406 114.796875 C 99.398438 115.109375 99.667969 115.109375 101.453125 114.796875 C 103.65625 114.40625 105.527344 113.761719 106.359375 113.101562 C 107.085938 112.542969 106.921875 112.398438 105.984375 112.789062 Z M 105.984375 112.789062 "/>
<path style=" stroke:none;fill-rule:nonzero;fill:rgb(0%,0%,0%);fill-opacity:1;" d="M 41.398438 45.898438 L 41.457031 53.308594 L 42.375 53.371094 C 42.957031 53.414062 43.351562 53.351562 43.476562 53.164062 C 43.578125 53.019531 43.640625 50.144531 43.597656 46.789062 L 43.558594 40.679688 L 50.664062 40.621094 C 57.292969 40.578125 57.773438 40.558594 57.960938 40.183594 C 58.082031 39.976562 58.105469 39.542969 58 39.210938 L 57.855469 38.609375 L 49.605469 38.550781 L 41.355469 38.507812 Z M 41.398438 45.898438 "/>
<path style=" stroke:none;fill-rule:nonzero;fill:rgb(0%,0%,0%);fill-opacity:1;" d="M 141.894531 39.171875 C 141.667969 40.660156 141.210938 40.578125 148.898438 40.578125 C 152.722656 40.578125 155.945312 40.621094 156.109375 40.679688 C 156.316406 40.765625 156.359375 41.902344 156.296875 46.582031 C 156.277344 49.769531 156.296875 52.628906 156.359375 52.917969 C 156.484375 53.394531 156.585938 53.433594 157.480469 53.371094 L 158.457031 53.308594 L 158.5625 46.105469 C 158.625 42.152344 158.644531 38.816406 158.601562 38.714844 C 158.5625 38.589844 155.546875 38.507812 150.25 38.507812 L 141.976562 38.507812 Z M 141.894531 39.171875 "/>
<path style=" stroke:none;fill-rule:nonzero;fill:rgb(0%,0%,0%);fill-opacity:1;" d="M 41.8125 112.148438 L 41.355469 112.230469 L 41.398438 119.828125 L 41.457031 127.425781 L 43.015625 127.53125 C 43.871094 127.59375 47.609375 127.59375 51.328125 127.53125 L 58.082031 127.425781 L 58.144531 126.640625 C 58.269531 125.171875 58.457031 125.210938 51.039062 125.253906 C 47.359375 125.273438 44.203125 125.273438 44.015625 125.273438 C 43.660156 125.253906 43.640625 124.796875 43.640625 118.753906 C 43.640625 111.363281 43.746094 111.777344 41.8125 112.148438 Z M 41.8125 112.148438 "/>
<path style=" stroke:none;fill-rule:nonzero;fill:rgb(0%,0%,0%);fill-opacity:1;" d="M 156.585938 112.128906 C 156.441406 112.191406 156.402344 114.425781 156.441406 118.609375 C 156.503906 123.371094 156.441406 125.046875 156.277344 125.148438 C 156.128906 125.234375 153.011719 125.296875 149.335938 125.273438 C 145.65625 125.253906 142.476562 125.296875 142.289062 125.378906 C 142.039062 125.460938 141.9375 125.75 141.9375 126.390625 C 141.9375 126.890625 142.019531 127.34375 142.125 127.40625 C 142.496094 127.65625 158.125 127.632812 158.355469 127.40625 C 158.5 127.261719 158.542969 124.714844 158.519531 119.644531 L 158.457031 112.105469 L 157.625 112.066406 C 157.167969 112.046875 156.691406 112.066406 156.585938 112.128906 Z M 156.585938 112.128906 "/>
<path style=" stroke:none;fill-rule:nonzero;fill:rgb(0%,0%,0%);fill-opacity:1;" d="M 0.105469 117.28125 C 0.167969 120.140625 0.3125 121.628906 0.707031 123.699219 C 1.433594 127.59375 1.808594 129.332031 2.203125 130.738281 C 2.390625 131.421875 2.722656 132.6875 2.949219 133.535156 C 3.179688 134.382812 3.429688 135.355469 3.53125 135.707031 C 3.636719 136.039062 3.84375 136.785156 4.011719 137.363281 C 4.175781 137.925781 4.65625 139.375 5.089844 140.574219 C 5.507812 141.773438 5.902344 142.996094 5.964844 143.308594 C 6.027344 143.636719 6.152344 143.886719 6.253906 143.886719 C 6.359375 143.886719 6.441406 144.074219 6.441406 144.300781 C 6.441406 144.527344 6.523438 144.878906 6.628906 145.085938 C 6.796875 145.460938 7.273438 146.535156 7.625 147.40625 C 8 148.253906 12.820312 158.007812 13.339844 158.894531 C 13.613281 159.351562 13.882812 159.746094 13.984375 159.785156 C 14.070312 159.828125 14.132812 159.972656 14.132812 160.117188 C 14.132812 160.261719 14.566406 161.027344 15.128906 161.816406 C 15.667969 162.601562 16.230469 163.472656 16.375 163.761719 C 16.519531 164.050781 17.496094 165.5 18.558594 166.992188 C 20.738281 170.097656 21.363281 170.882812 24.003906 173.988281 C 24.6875 174.796875 25.519531 175.789062 25.871094 176.183594 C 26.746094 177.238281 34.871094 185.25 36.078125 186.246094 C 36.636719 186.722656 37.613281 187.507812 38.238281 188.003906 C 38.859375 188.5 39.484375 189 39.609375 189.121094 C 39.753906 189.226562 40.109375 189.515625 40.398438 189.722656 C 40.710938 189.949219 41.210938 190.34375 41.519531 190.632812 C 42.144531 191.171875 48.730469 195.5625 49.875 196.183594 C 50.269531 196.390625 50.644531 196.636719 50.707031 196.699219 C 50.769531 196.761719 50.957031 196.886719 51.121094 196.949219 C 51.289062 197.03125 51.808594 197.320312 52.265625 197.609375 C 53.199219 198.191406 60.847656 202.019531 61.949219 202.433594 C 62.34375 202.601562 63.132812 202.933594 63.695312 203.199219 C 64.277344 203.449219 65.398438 203.882812 66.1875 204.132812 C 67 204.402344 67.933594 204.734375 68.265625 204.855469 C 68.621094 205.003906 69.597656 205.332031 70.449219 205.582031 C 71.300781 205.851562 72.570312 206.222656 73.253906 206.453125 C 73.941406 206.660156 74.917969 206.949219 75.4375 207.050781 C 75.957031 207.15625 76.746094 207.339844 77.203125 207.464844 C 77.660156 207.570312 78.554688 207.753906 79.175781 207.859375 C 79.800781 207.960938 80.921875 208.191406 81.671875 208.375 C 82.417969 208.542969 83.6875 208.769531 84.476562 208.894531 C 85.285156 208.996094 87.425781 209.289062 89.257812 209.558594 C 92.164062 209.949219 93.496094 210.011719 99.957031 210.011719 C 108.914062 210.03125 112.945312 209.640625 120.117188 208.046875 C 120.636719 207.921875 121.46875 207.734375 121.988281 207.632812 C 123.335938 207.320312 124.042969 207.132812 127.285156 206.183594 C 128.886719 205.707031 130.402344 205.292969 130.671875 205.230469 C 130.921875 205.167969 131.191406 205.042969 131.253906 204.941406 C 131.316406 204.835938 131.546875 204.753906 131.773438 204.753906 C 131.984375 204.753906 132.335938 204.671875 132.542969 204.566406 C 132.9375 204.382812 132.960938 204.359375 136.117188 203.097656 C 141.230469 201.046875 146.902344 198.148438 151.246094 195.375 C 152.078125 194.835938 152.828125 194.402344 152.929688 194.402344 C 153.035156 194.402344 153.160156 194.339844 153.199219 194.238281 C 153.242188 194.152344 153.96875 193.636719 154.820312 193.054688 C 164.378906 186.722656 174.8125 176.328125 181.878906 166.140625 C 185.785156 160.492188 189.734375 153.285156 192.621094 146.472656 C 192.871094 145.894531 193.164062 145.273438 193.265625 145.085938 C 193.390625 144.878906 193.476562 144.570312 193.476562 144.402344 C 193.476562 144.238281 193.558594 143.929688 193.660156 143.722656 C 194.015625 143.039062 194.285156 142.3125 194.847656 140.574219 C 195.15625 139.601562 195.46875 138.628906 195.574219 138.398438 C 195.65625 138.171875 195.886719 137.425781 196.09375 136.742188 C 196.28125 136.0625 196.507812 135.316406 196.59375 135.085938 C 196.695312 134.859375 196.820312 134.445312 196.863281 134.15625 C 196.925781 133.867188 197.214844 132.664062 197.507812 131.464844 C 198.484375 127.550781 198.980469 125.128906 199.523438 121.527344 C 199.75 119.914062 200.019531 113.703125 199.832031 113.886719 C 199.75 113.949219 199.605469 115.066406 199.5 116.371094 C 199.085938 121.507812 197.691406 129.207031 196.46875 133.101562 C 196.300781 133.617188 196.175781 134.238281 196.175781 134.488281 C 196.175781 134.757812 196.09375 135.027344 195.96875 135.085938 C 195.863281 135.148438 195.761719 135.398438 195.761719 135.648438 C 195.761719 136.121094 193.847656 141.859375 193.058594 143.78125 C 192.976562 144.011719 192.746094 144.570312 192.582031 145.023438 C 192.414062 145.480469 192.039062 146.371094 191.75 146.992188 C 191.457031 147.613281 191 148.691406 190.710938 149.371094 C 190.417969 150.054688 189.898438 151.152344 189.546875 151.835938 C 189.195312 152.5 188.902344 153.160156 188.902344 153.304688 C 188.902344 153.453125 188.839844 153.617188 188.738281 153.660156 C 188.652344 153.679688 188.257812 154.363281 187.863281 155.167969 C 187.46875 155.957031 186.992188 156.847656 186.804688 157.136719 C 186.617188 157.425781 186.179688 158.191406 185.828125 158.835938 C 185.203125 159.972656 182.960938 163.65625 182.625 164.070312 C 182.542969 164.175781 182.148438 164.714844 181.773438 165.253906 C 176.539062 172.808594 169.972656 180.136719 163.550781 185.601562 C 162.34375 186.636719 161.324219 187.507812 161.261719 187.570312 C 160.160156 188.792969 149.917969 195.769531 147.234375 197.136719 C 146.902344 197.300781 145.863281 197.839844 144.949219 198.335938 C 139.652344 201.128906 136.347656 202.621094 133.625 203.511719 C 133 203.71875 132.105469 204.027344 131.648438 204.195312 C 131.191406 204.382812 129.988281 204.773438 128.949219 205.0625 C 127.929688 205.375 126.890625 205.707031 126.664062 205.789062 C 126.101562 206.015625 124.085938 206.535156 120.117188 207.464844 C 119.117188 207.695312 116.625 208.167969 114.714844 208.480469 C 109.976562 209.289062 101.953125 209.804688 97.570312 209.617188 C 94.535156 209.496094 87.699219 208.851562 85.410156 208.480469 C 82.648438 208.046875 80.339844 207.609375 77.929688 207.011719 C 76.496094 206.679688 74.917969 206.285156 74.398438 206.183594 C 73.878906 206.058594 73.273438 205.871094 73.046875 205.789062 C 72.816406 205.683594 71.800781 205.355469 70.761719 205.042969 C 69.742188 204.734375 68.558594 204.382812 68.164062 204.234375 C 67.769531 204.089844 66.875 203.761719 66.1875 203.511719 C 61.636719 201.855469 54.40625 198.335938 50.082031 195.664062 C 42.519531 191.007812 36.304688 186.058594 30.007812 179.660156 C 24.710938 174.277344 21.738281 170.636719 17.375 164.175781 C 16 162.167969 15.480469 161.339844 14.378906 159.414062 C 14.152344 159.019531 13.632812 158.089844 13.195312 157.34375 C 11.886719 155.109375 9.101562 149.3125 8.023438 146.679688 C 6.671875 143.308594 6.734375 143.453125 6.441406 142.644531 C 6.296875 142.25 6.066406 141.628906 5.921875 141.296875 C 5.589844 140.492188 4.324219 136.433594 3.679688 134.15625 C 3.117188 132.210938 2.886719 131.300781 2.390625 128.980469 C 2.203125 128.132812 2.015625 127.242188 1.953125 127.011719 C 1.640625 125.667969 0.996094 121.671875 0.726562 119.351562 C 0.0429688 113.347656 0.0195312 113.308594 0.105469 117.28125 Z M 0.105469 117.28125 "/>
<path style=" stroke:none;fill-rule:nonzero;fill:rgb(0%,0%,0%);fill-opacity:1;" d="M 44.535156 139.496094 C 42.414062 140.574219 41.042969 142.3125 40.542969 144.527344 C 40.417969 145.066406 40.316406 149.332031 40.316406 155.066406 C 40.316406 165.292969 40.359375 165.789062 41.355469 167.382812 C 41.976562 168.378906 43.515625 169.722656 44.636719 170.242188 L 45.613281 170.695312 L 154.507812 170.695312 L 155.589844 170.097656 C 157.003906 169.308594 158.105469 168.234375 158.875 166.847656 L 159.496094 165.726562 L 159.496094 143.988281 L 159 142.953125 C 158.375 141.671875 156.671875 139.972656 155.402344 139.375 L 154.40625 138.917969 L 45.613281 138.917969 Z M 136.304688 146.082031 C 137.550781 147.117188 136.949219 148.75 135.203125 148.980469 C 134.351562 149.105469 134.207031 149.0625 133.644531 148.484375 C 132.8125 147.675781 132.8125 146.992188 133.644531 146.183594 C 134.457031 145.355469 135.410156 145.316406 136.304688 146.082031 Z M 64.589844 146.621094 C 64.816406 146.910156 64.777344 148.566406 64.546875 148.8125 C 64.464844 148.898438 63.339844 148.9375 62.074219 148.898438 C 60.785156 148.875 59.640625 148.917969 59.496094 149.019531 C 59.308594 149.125 59.246094 150.988281 59.207031 156.058594 C 59.183594 162.476562 59.144531 162.953125 58.789062 163.140625 C 58.355469 163.390625 56.734375 163.410156 56.378906 163.183594 C 56.171875 163.058594 56.109375 161.296875 56.066406 155.976562 L 56.003906 148.957031 L 53.617188 148.917969 C 52.308594 148.898438 51.121094 148.875 50.996094 148.875 C 50.6875 148.855469 50.476562 146.949219 50.75 146.621094 C 50.914062 146.433594 52.554688 146.371094 57.667969 146.371094 C 62.78125 146.371094 64.421875 146.433594 64.589844 146.621094 Z M 102.640625 147.386719 C 102.867188 147.945312 103.074219 148.503906 103.074219 148.605469 C 103.074219 148.710938 103.492188 149.726562 104.03125 150.84375 C 104.550781 151.960938 105.300781 153.761719 105.714844 154.839844 C 106.109375 155.9375 106.609375 157.199219 106.816406 157.652344 C 107.023438 158.109375 107.253906 158.710938 107.335938 158.957031 C 107.460938 159.414062 107.503906 159.433594 107.730469 159.0625 C 107.855469 158.855469 108.1875 158.027344 108.457031 157.238281 C 108.851562 156.058594 109.996094 153.140625 110.972656 150.820312 C 111.078125 150.59375 111.449219 149.621094 111.824219 148.648438 C 112.199219 147.675781 112.59375 146.765625 112.699219 146.621094 C 112.90625 146.351562 115.691406 146.265625 116.085938 146.535156 C 116.273438 146.640625 116.335938 149 116.335938 154.902344 L 116.355469 163.121094 L 115.628906 163.265625 C 115.210938 163.347656 114.589844 163.304688 114.234375 163.203125 L 113.570312 163.015625 L 113.613281 157.550781 C 113.652344 151.175781 113.589844 151.070312 112.117188 155.292969 C 110.847656 158.894531 109.332031 162.769531 109.0625 163.078125 C 108.707031 163.511719 106.464844 163.429688 106.171875 162.976562 C 106.046875 162.789062 105.363281 161.171875 104.632812 159.414062 C 103.867188 157.53125 103.199219 156.183594 103.011719 156.144531 C 102.847656 156.101562 102.453125 155.292969 102.058594 154.175781 C 100.871094 150.699219 100.789062 150.882812 100.789062 157.40625 C 100.789062 160.550781 100.726562 163.140625 100.644531 163.160156 C 100.539062 163.160156 100.289062 163.203125 100.0625 163.265625 C 99.832031 163.304688 99.292969 163.285156 98.878906 163.222656 L 98.089844 163.097656 L 98.089844 154.878906 C 98.089844 150.347656 98.152344 146.578125 98.234375 146.515625 C 98.296875 146.433594 99.230469 146.371094 100.269531 146.371094 L 102.203125 146.371094 Z M 131.296875 147.46875 C 131.402344 148.980469 131.277344 149.042969 128.574219 148.917969 C 127.285156 148.855469 125.519531 148.855469 124.648438 148.9375 L 123.046875 149.105469 L 122.984375 150.96875 C 122.941406 151.980469 122.984375 152.933594 123.066406 153.078125 C 123.171875 153.222656 124.335938 153.347656 126.390625 153.410156 L 129.570312 153.511719 L 129.632812 154.507812 C 129.738281 156.058594 129.65625 156.101562 126.121094 156.101562 L 123.027344 156.101562 L 123.027344 163.097656 L 122.257812 163.203125 C 121.820312 163.265625 121.195312 163.285156 120.84375 163.265625 L 120.21875 163.203125 L 120.117188 155.046875 C 120.054688 150.554688 120.054688 146.765625 120.09375 146.621094 C 120.136719 146.414062 121.363281 146.371094 125.707031 146.414062 L 131.234375 146.472656 Z M 143.746094 147.242188 C 143.828125 147.386719 143.871094 148.191406 143.828125 149.042969 C 143.785156 150.140625 143.847656 150.613281 144.054688 150.738281 C 144.203125 150.84375 145.324219 150.925781 146.570312 150.925781 L 148.792969 150.925781 L 148.792969 153.183594 L 146.363281 153.246094 L 143.910156 153.304688 L 143.890625 156.308594 C 143.847656 159.972656 144.015625 160.511719 145.242188 160.882812 C 146.074219 161.132812 146.632812 161.070312 148.546875 160.53125 C 149.003906 160.40625 149.023438 160.429688 148.960938 161.585938 C 148.898438 162.933594 148.855469 162.976562 147.089844 163.367188 C 145.429688 163.71875 143.703125 163.347656 142.558594 162.375 C 141.148438 161.152344 141.042969 160.800781 141.023438 156.824219 L 141 153.304688 L 139.546875 153.203125 C 137.945312 153.078125 137.820312 152.976562 138.09375 151.628906 L 138.21875 150.925781 L 139.421875 150.925781 C 141.023438 150.925781 141.210938 150.699219 141.023438 148.9375 C 140.917969 148.007812 140.960938 147.46875 141.125 147.28125 C 141.4375 146.910156 143.515625 146.886719 143.746094 147.242188 Z M 72.921875 151.007812 C 73.066406 151.175781 73.152344 151.773438 73.109375 152.417969 C 73.066406 153.265625 72.984375 153.492188 72.734375 153.429688 C 72.570312 153.390625 71.945312 153.304688 71.34375 153.246094 C 70.46875 153.183594 70.117188 153.246094 69.472656 153.636719 C 68.164062 154.445312 68.183594 154.363281 68.164062 158.9375 L 68.164062 163.121094 L 67.226562 163.265625 C 66.707031 163.328125 66.0625 163.328125 65.773438 163.265625 L 65.253906 163.140625 L 65.253906 150.925781 L 66.5 150.925781 C 67.644531 150.925781 67.769531 150.96875 67.957031 151.441406 C 68.164062 152.003906 68.453125 152.105469 68.703125 151.734375 C 69.203125 150.925781 72.402344 150.367188 72.921875 151.007812 Z M 76.972656 151.527344 C 77.121094 151.816406 77.515625 152.851562 77.828125 153.824219 C 78.136719 154.796875 78.46875 155.667969 78.554688 155.789062 C 78.636719 155.894531 78.824219 156.371094 78.96875 156.824219 C 79.09375 157.28125 79.34375 157.945312 79.507812 158.316406 C 79.675781 158.667969 79.800781 159.0625 79.800781 159.207031 C 79.800781 159.828125 80.363281 159.164062 80.757812 158.046875 C 81.710938 155.398438 83.375 151.234375 83.5 151.113281 C 83.582031 151.027344 84.269531 150.925781 85.058594 150.863281 C 86.742188 150.71875 86.742188 150.71875 85.742188 153.097656 C 84.308594 156.496094 82.253906 161.421875 81.753906 162.664062 C 80.671875 165.335938 79.53125 166.867188 78.074219 167.632812 C 77.367188 167.984375 75.351562 168.109375 74.355469 167.839844 C 73.816406 167.695312 73.773438 167.613281 73.773438 166.578125 C 73.773438 165.375 73.898438 165.105469 74.335938 165.4375 C 74.75 165.789062 76.058594 165.75 76.933594 165.355469 C 77.910156 164.941406 78.617188 163.886719 78.46875 163.015625 C 78.429688 162.664062 77.515625 160.34375 76.476562 157.839844 C 74.5 153.160156 73.773438 151.339844 73.773438 151.089844 C 73.773438 150.90625 74.730469 150.800781 75.808594 150.90625 C 76.515625 150.945312 76.746094 151.070312 76.972656 151.527344 Z M 136.140625 150.925781 C 136.511719 151.132812 136.535156 151.421875 136.535156 157.117188 L 136.535156 163.097656 L 136.078125 163.222656 C 135.347656 163.410156 133.875 163.367188 133.726562 163.160156 C 133.5625 162.890625 133.5625 151.195312 133.726562 150.925781 C 133.894531 150.65625 135.621094 150.65625 136.140625 150.925781 Z M 94.949219 154.941406 C 95.09375 155.109375 95.179688 155.644531 95.136719 156.144531 L 95.074219 157.03125 L 91.375 157.136719 C 89.171875 157.199219 87.59375 157.15625 87.46875 157.03125 C 87.261719 156.824219 87.199219 155.003906 87.425781 154.796875 C 87.488281 154.714844 89.171875 154.652344 91.125 154.652344 C 93.972656 154.652344 94.761719 154.714844 94.949219 154.941406 Z M 94.949219 154.941406 "/>
</g>
</svg>
